<mxfile host="Electron" modified="2023-08-09T08:11:00.391Z" agent="Mozilla/5.0 (X11; Linux x86_64) AppleWebKit/537.36 (KHTML, like Gecko) draw.io/21.6.5 Chrome/114.0.5735.243 Electron/25.3.1 Safari/537.36" etag="7Njzkk_811cGSpw9QlDb" version="21.6.5" type="device">
  <diagram name="第 1 页" id="m_M1ldEbIioYbRbMe1yx">
    <mxGraphModel dx="2017" dy="1454" grid="1" gridSize="10" guides="1" tooltips="1" connect="1" arrows="1" fold="1" page="0" pageScale="1" pageWidth="827" pageHeight="1169" math="0" shadow="0">
      <root>
        <mxCell id="0" />
        <mxCell id="1" parent="0" />
        <mxCell id="FopoP3DFynw00uvgHDGr-27" value="" style="rounded=0;whiteSpace=wrap;html=1;fontSize=16;fillColor=none;dashed=1;" vertex="1" parent="1">
          <mxGeometry x="-320" y="-170" width="240" height="230" as="geometry" />
        </mxCell>
        <mxCell id="FopoP3DFynw00uvgHDGr-25" value="" style="rounded=0;whiteSpace=wrap;html=1;fontSize=16;align=center;dashed=1;fillColor=none;" vertex="1" parent="1">
          <mxGeometry x="-80" y="-170" width="660" height="230" as="geometry" />
        </mxCell>
        <mxCell id="FopoP3DFynw00uvgHDGr-6" value="" style="edgeStyle=none;curved=1;rounded=0;orthogonalLoop=1;jettySize=auto;html=1;fontSize=12;startSize=8;endSize=8;" edge="1" parent="1" source="FopoP3DFynw00uvgHDGr-4" target="FopoP3DFynw00uvgHDGr-5">
          <mxGeometry relative="1" as="geometry" />
        </mxCell>
        <mxCell id="FopoP3DFynw00uvgHDGr-4" value="UMP&lt;br&gt;（尿苷酸）" style="text;html=1;align=center;verticalAlign=middle;resizable=0;points=[];autosize=1;strokeColor=none;fillColor=none;fontSize=16;" vertex="1" parent="1">
          <mxGeometry x="-90" y="-12" width="100" height="50" as="geometry" />
        </mxCell>
        <mxCell id="FopoP3DFynw00uvgHDGr-9" value="" style="edgeStyle=none;curved=1;rounded=0;orthogonalLoop=1;jettySize=auto;html=1;fontSize=12;startSize=8;endSize=8;" edge="1" parent="1" source="FopoP3DFynw00uvgHDGr-5" target="FopoP3DFynw00uvgHDGr-8">
          <mxGeometry relative="1" as="geometry" />
        </mxCell>
        <mxCell id="FopoP3DFynw00uvgHDGr-14" value="" style="edgeStyle=none;curved=1;rounded=0;orthogonalLoop=1;jettySize=auto;html=1;fontSize=12;startSize=8;endSize=8;" edge="1" parent="1" source="FopoP3DFynw00uvgHDGr-5" target="FopoP3DFynw00uvgHDGr-13">
          <mxGeometry relative="1" as="geometry" />
        </mxCell>
        <mxCell id="FopoP3DFynw00uvgHDGr-5" value="UDP&lt;br&gt;（二磷酸尿苷）" style="text;html=1;align=center;verticalAlign=middle;resizable=0;points=[];autosize=1;strokeColor=none;fillColor=none;fontSize=16;" vertex="1" parent="1">
          <mxGeometry x="140" y="-12" width="140" height="50" as="geometry" />
        </mxCell>
        <mxCell id="FopoP3DFynw00uvgHDGr-7" value="X 激酶" style="text;html=1;align=center;verticalAlign=middle;resizable=0;points=[];autosize=1;strokeColor=#d79b00;fillColor=#ffe6cc;fontSize=16;rounded=1;" vertex="1" parent="1">
          <mxGeometry x="40" y="-20" width="70" height="30" as="geometry" />
        </mxCell>
        <mxCell id="FopoP3DFynw00uvgHDGr-31" value="" style="edgeStyle=none;curved=1;rounded=0;orthogonalLoop=1;jettySize=auto;html=1;fontSize=12;startSize=8;endSize=8;" edge="1" parent="1" source="FopoP3DFynw00uvgHDGr-8" target="FopoP3DFynw00uvgHDGr-30">
          <mxGeometry relative="1" as="geometry" />
        </mxCell>
        <mxCell id="FopoP3DFynw00uvgHDGr-8" value="UTP&lt;br&gt;（三磷酸尿苷）" style="text;html=1;align=center;verticalAlign=middle;resizable=0;points=[];autosize=1;strokeColor=none;fillColor=none;fontSize=16;" vertex="1" parent="1">
          <mxGeometry x="420" y="-12" width="140" height="50" as="geometry" />
        </mxCell>
        <mxCell id="FopoP3DFynw00uvgHDGr-11" value="二磷酸核苷&lt;br&gt;激酶" style="text;html=1;align=center;verticalAlign=middle;resizable=0;points=[];autosize=1;strokeColor=#d79b00;fillColor=#ffe6cc;fontSize=16;rounded=1;" vertex="1" parent="1">
          <mxGeometry x="300" y="-40" width="100" height="50" as="geometry" />
        </mxCell>
        <mxCell id="FopoP3DFynw00uvgHDGr-17" value="" style="edgeStyle=none;curved=1;rounded=0;orthogonalLoop=1;jettySize=auto;html=1;fontSize=12;startSize=8;endSize=8;dashed=1;" edge="1" parent="1" source="FopoP3DFynw00uvgHDGr-13" target="FopoP3DFynw00uvgHDGr-16">
          <mxGeometry relative="1" as="geometry" />
        </mxCell>
        <mxCell id="FopoP3DFynw00uvgHDGr-23" value="水解" style="edgeLabel;html=1;align=center;verticalAlign=middle;resizable=0;points=[];fontSize=16;" vertex="1" connectable="0" parent="FopoP3DFynw00uvgHDGr-17">
          <mxGeometry x="-0.3504" y="2" relative="1" as="geometry">
            <mxPoint x="-7" y="-17" as="offset" />
          </mxGeometry>
        </mxCell>
        <mxCell id="FopoP3DFynw00uvgHDGr-13" value="dUDP" style="text;html=1;align=center;verticalAlign=middle;resizable=0;points=[];autosize=1;strokeColor=none;fillColor=none;fontSize=16;" vertex="1" parent="1">
          <mxGeometry x="175" y="-130" width="70" height="30" as="geometry" />
        </mxCell>
        <mxCell id="FopoP3DFynw00uvgHDGr-15" value="核苷酸还原酶" style="text;html=1;align=center;verticalAlign=middle;resizable=0;points=[];autosize=1;strokeColor=#d79b00;fillColor=#ffe6cc;fontSize=16;rounded=1;" vertex="1" parent="1">
          <mxGeometry x="80" y="-70" width="120" height="30" as="geometry" />
        </mxCell>
        <mxCell id="FopoP3DFynw00uvgHDGr-19" value="" style="edgeStyle=none;curved=1;rounded=0;orthogonalLoop=1;jettySize=auto;html=1;fontSize=12;startSize=8;endSize=8;" edge="1" parent="1" source="FopoP3DFynw00uvgHDGr-16" target="FopoP3DFynw00uvgHDGr-18">
          <mxGeometry relative="1" as="geometry" />
        </mxCell>
        <mxCell id="FopoP3DFynw00uvgHDGr-16" value="dUMP" style="text;html=1;align=center;verticalAlign=middle;resizable=0;points=[];autosize=1;strokeColor=none;fillColor=none;fontSize=16;" vertex="1" parent="1">
          <mxGeometry x="20" y="-130" width="70" height="30" as="geometry" />
        </mxCell>
        <mxCell id="FopoP3DFynw00uvgHDGr-18" value="dTMP&lt;br&gt;（&lt;font color=&quot;#808080&quot;&gt;脱氧&lt;/font&gt;胸苷酸）" style="text;html=1;align=center;verticalAlign=middle;resizable=0;points=[];autosize=1;strokeColor=none;fillColor=none;fontSize=16;" vertex="1" parent="1">
          <mxGeometry x="-320" y="-140" width="140" height="50" as="geometry" />
        </mxCell>
        <mxCell id="FopoP3DFynw00uvgHDGr-21" value="Y 合酶" style="text;html=1;align=center;verticalAlign=middle;resizable=0;points=[];autosize=1;strokeColor=#d79b00;fillColor=#ffe6cc;fontSize=16;rounded=1;" vertex="1" parent="1">
          <mxGeometry x="-110" y="-150" width="70" height="30" as="geometry" />
        </mxCell>
        <mxCell id="FopoP3DFynw00uvgHDGr-22" value="甲基：N&lt;sup&gt;5&lt;/sup&gt;,N&lt;sup&gt;10&lt;/sup&gt;-亚甲四氢叶酸" style="text;html=1;align=center;verticalAlign=middle;resizable=0;points=[];autosize=1;strokeColor=none;fillColor=none;fontSize=16;" vertex="1" parent="1">
          <mxGeometry x="-185" y="-110" width="220" height="40" as="geometry" />
        </mxCell>
        <mxCell id="FopoP3DFynw00uvgHDGr-35" style="edgeStyle=orthogonalEdgeStyle;rounded=0;orthogonalLoop=1;jettySize=auto;html=1;fontSize=12;startSize=8;endSize=8;" edge="1" parent="1" source="FopoP3DFynw00uvgHDGr-36" target="FopoP3DFynw00uvgHDGr-16">
          <mxGeometry relative="1" as="geometry">
            <Array as="points">
              <mxPoint x="650" y="-220" />
              <mxPoint x="60" y="-220" />
            </Array>
          </mxGeometry>
        </mxCell>
        <mxCell id="FopoP3DFynw00uvgHDGr-44" value="脱氨基" style="edgeLabel;html=1;align=center;verticalAlign=middle;resizable=0;points=[];fontSize=16;" vertex="1" connectable="0" parent="FopoP3DFynw00uvgHDGr-35">
          <mxGeometry x="0.0178" relative="1" as="geometry">
            <mxPoint as="offset" />
          </mxGeometry>
        </mxCell>
        <mxCell id="FopoP3DFynw00uvgHDGr-41" style="edgeStyle=none;curved=1;rounded=0;orthogonalLoop=1;jettySize=auto;html=1;fontSize=12;startSize=8;endSize=8;" edge="1" parent="1" source="FopoP3DFynw00uvgHDGr-30" target="FopoP3DFynw00uvgHDGr-42">
          <mxGeometry relative="1" as="geometry">
            <mxPoint x="810" y="-80" as="targetPoint" />
          </mxGeometry>
        </mxCell>
        <mxCell id="FopoP3DFynw00uvgHDGr-30" value="CTP&lt;br&gt;（三磷酸胞苷）" style="text;html=1;align=center;verticalAlign=middle;resizable=0;points=[];autosize=1;strokeColor=none;fillColor=none;fontSize=16;" vertex="1" parent="1">
          <mxGeometry x="740" y="-12" width="140" height="50" as="geometry" />
        </mxCell>
        <mxCell id="FopoP3DFynw00uvgHDGr-32" value="Y 合成酶" style="text;html=1;align=center;verticalAlign=middle;resizable=0;points=[];autosize=1;strokeColor=#d79b00;fillColor=#ffe6cc;fontSize=16;rounded=1;" vertex="1" parent="1">
          <mxGeometry x="610" y="-20" width="90" height="30" as="geometry" />
        </mxCell>
        <mxCell id="FopoP3DFynw00uvgHDGr-33" value="氨基：谷氨酰胺" style="text;html=1;align=center;verticalAlign=middle;resizable=0;points=[];autosize=1;strokeColor=none;fillColor=none;fontSize=16;" vertex="1" parent="1">
          <mxGeometry x="585" y="18" width="140" height="30" as="geometry" />
        </mxCell>
        <mxCell id="FopoP3DFynw00uvgHDGr-34" value="ATP" style="text;html=1;align=center;verticalAlign=middle;resizable=0;points=[];autosize=1;strokeColor=none;fillColor=none;fontSize=16;" vertex="1" parent="1">
          <mxGeometry x="630" y="38" width="50" height="30" as="geometry" />
        </mxCell>
        <mxCell id="FopoP3DFynw00uvgHDGr-36" value="dCMP" style="text;html=1;align=center;verticalAlign=middle;resizable=0;points=[];autosize=1;strokeColor=none;fillColor=none;fontSize=16;" vertex="1" parent="1">
          <mxGeometry x="620" y="-130" width="70" height="30" as="geometry" />
        </mxCell>
        <mxCell id="FopoP3DFynw00uvgHDGr-43" style="edgeStyle=none;curved=1;rounded=0;orthogonalLoop=1;jettySize=auto;html=1;fontSize=12;startSize=8;endSize=8;" edge="1" parent="1" source="FopoP3DFynw00uvgHDGr-42" target="FopoP3DFynw00uvgHDGr-36">
          <mxGeometry relative="1" as="geometry" />
        </mxCell>
        <mxCell id="FopoP3DFynw00uvgHDGr-42" value="..." style="text;html=1;align=center;verticalAlign=middle;resizable=0;points=[];autosize=1;strokeColor=none;fillColor=none;fontSize=16;" vertex="1" parent="1">
          <mxGeometry x="790" y="-130" width="40" height="30" as="geometry" />
        </mxCell>
        <mxCell id="FopoP3DFynw00uvgHDGr-46" value="" style="rounded=0;whiteSpace=wrap;html=1;fontSize=16;fillColor=none;dashed=1;" vertex="1" parent="1">
          <mxGeometry x="580" y="-170" width="290" height="230" as="geometry" />
        </mxCell>
        <mxCell id="FopoP3DFynw00uvgHDGr-47" value="T" style="text;html=1;align=center;verticalAlign=middle;resizable=0;points=[];autosize=1;strokeColor=default;fillColor=none;fontSize=16;dashed=1;" vertex="1" parent="1">
          <mxGeometry x="-320" y="30" width="30" height="30" as="geometry" />
        </mxCell>
        <mxCell id="FopoP3DFynw00uvgHDGr-48" value="U" style="text;html=1;align=center;verticalAlign=middle;resizable=0;points=[];autosize=1;strokeColor=default;fillColor=none;fontSize=16;dashed=1;" vertex="1" parent="1">
          <mxGeometry x="540" y="-170" width="40" height="30" as="geometry" />
        </mxCell>
        <mxCell id="FopoP3DFynw00uvgHDGr-49" value="C" style="text;html=1;align=center;verticalAlign=middle;resizable=0;points=[];autosize=1;strokeColor=default;fillColor=none;fontSize=16;dashed=1;" vertex="1" parent="1">
          <mxGeometry x="830" y="-170" width="40" height="30" as="geometry" />
        </mxCell>
        <mxCell id="FopoP3DFynw00uvgHDGr-52" style="edgeStyle=none;curved=1;rounded=0;orthogonalLoop=1;jettySize=auto;html=1;fontSize=12;startSize=8;endSize=8;" edge="1" parent="1" source="FopoP3DFynw00uvgHDGr-51" target="FopoP3DFynw00uvgHDGr-4">
          <mxGeometry relative="1" as="geometry" />
        </mxCell>
        <mxCell id="FopoP3DFynw00uvgHDGr-51" value="嘧啶核苷酸从头合成" style="text;html=1;align=center;verticalAlign=middle;resizable=0;points=[];autosize=1;strokeColor=none;fillColor=none;fontSize=16;" vertex="1" parent="1">
          <mxGeometry x="-125" y="100" width="170" height="30" as="geometry" />
        </mxCell>
      </root>
    </mxGraphModel>
  </diagram>
</mxfile>
